<svg width="76" height="76" viewBox="0 0 76 76" fill="none" xmlns="http://www.w3.org/2000/svg">
<g clip-path="url(#clip0_50_59)">
<rect width="76" height="76" rx="10" fill="white"/>
<path d="M66 10H57.2856C53.2645 10 50 13.591 50 18.0141V26H58.783C62.7662 26 66 22.4427 66 18.0612V10Z" fill="#16B378"/>
<path d="M30 10H38.7144C42.7355 10 46 13.591 46 18.0141V26H37.217C33.2338 26 30 22.4427 30 18.0612V10Z" fill="#16B378"/>
<path d="M10 30H18.7144C22.7355 30 26 33.591 26 38.0141V46H17.217C13.2338 46 10 42.4427 10 38.0612V30Z" fill="#F9AE41"/>
<path d="M10 50H18.7144C22.7355 50 26 53.591 26 58.0141V66H17.217C13.2338 66 10 62.4427 10 58.0612V50Z" fill="#F9AE41"/>
<path d="M30 30H38.7144C42.7355 30 46 33.591 46 38.0141V46H37.217C33.2338 46 30 42.4427 30 38.0612V30Z" fill="#D2D2D2"/>
<path d="M66 30H57.2856C53.2645 30 50 33.591 50 38.0141V46H58.783C62.7662 46 66 42.4427 66 38.0612V30Z" fill="#D2D2D2"/>
<path d="M30 50H38.7144C42.7355 50 46 53.591 46 58.0141V66H37.217C33.2338 66 30 62.4427 30 58.0612V50Z" fill="#D2D2D2"/>
<path d="M66 50H57.2856C53.2645 50 50 53.591 50 58.0141V66H58.783C62.7662 66 66 62.4427 66 58.0612V50Z" fill="#D2D2D2"/>
</g>
<defs>
<clipPath id="clip0_50_59">
<rect width="76" height="76" fill="white"/>
</clipPath>
</defs>
</svg>
